<svg xmlns="http://www.w3.org/2000/svg"  viewBox="0 0 24 24" width="24px" height="24px"><path d="M 8.984375 1 A 1.0001 1.0001 0 0 0 8 2 L 8 8.296875 L 5.6582031 6.2480469 A 1.0001 1.0001 0 0 0 4 7 L 4 16.171875 C 4 16.967284 4.3166015 17.730664 4.8789062 18.292969 L 7.7070312 21.121094 C 8.269336 21.683398 9.0327162 22 9.828125 22 L 14.171875 22 C 14.96666 22 15.730687 21.682217 16.292969 21.119141 L 19.121094 18.292969 C 19.683398 17.730664 20 16.967284 20 16.171875 L 20 12.828125 C 20 12.032716 19.683398 11.269336 19.121094 10.707031 L 9.7070312 1.2929688 A 1.0001 1.0001 0 0 0 8.984375 1 z M 10 4.4140625 L 17.707031 12.121094 C 17.894727 12.308789 18 12.563534 18 12.828125 L 18 16.171875 C 18 16.436466 17.894727 16.689258 17.707031 16.876953 L 14.878906 19.705078 A 1.0001 1.0001 0 0 0 14.878906 19.707031 C 14.691313 19.895078 14.436466 20 14.171875 20 L 9.828125 20 C 9.5635338 20 9.308789 19.894727 9.1210938 19.707031 L 6.2929688 16.878906 C 6.1052735 16.691211 6 16.436466 6 16.171875 L 6 9.203125 L 8.3417969 11.251953 A 1.0001 1.0001 0 0 0 10 10.5 L 10 4.4140625 z M 10.5 12.207031 C 10.244 12.207031 9.9879688 12.3045 9.7929688 12.5 L 8.7929688 13.5 C 8.6039687 13.688 8.5 13.940031 8.5 14.207031 L 8.5 15.292969 C 8.5 15.559969 8.6039687 15.812 8.7929688 16 L 11.292969 18.5 C 11.487969 18.695 11.744 18.792969 12 18.792969 C 12.256 18.792969 12.512031 18.695 12.707031 18.5 L 15.207031 16 C 15.396031 15.812 15.5 15.559969 15.5 15.292969 L 15.5 14.207031 C 15.5 13.940031 15.396031 13.688 15.207031 13.5 L 14.207031 12.5 C 13.817031 12.109 13.182969 12.109 12.792969 12.5 L 12 13.292969 L 11.207031 12.5 C 11.012031 12.3045 10.756 12.207031 10.5 12.207031 z"/></svg>