<svg width="221" height="138" xmlns="http://www.w3.org/2000/svg" xmlns:xlink="http://www.w3.org/1999/xlink" overflow="hidden"><g transform="translate(-179 -172)"><path d="M298.378 223.536 298.378 234.823 298.4 234.823 298.378 234.928C298.378 248.479 309.675 259.464 323.612 259.464L356.47 259.464C370.407 259.464 381.704 248.479 381.704 234.928L381.683 234.823 381.704 234.823 381.704 223.536ZM198.296 223.536 198.296 234.823 198.318 234.823 198.296 234.928C198.296 248.479 209.594 259.464 223.53 259.464L256.388 259.464C270.325 259.464 281.622 248.479 281.622 234.928L281.601 234.823 281.622 234.823 281.622 223.536ZM219.673 173 360.327 173C382.238 173 400 190.756 400 212.659L400 270.341C400 292.244 382.238 310 360.327 310L219.673 310C197.762 310 180 292.244 180 270.341L180 212.659C180 190.756 197.762 173 219.673 173Z" fill-rule="evenodd"/></g></svg>