<svg width="24" height="24" viewBox="0 0 24 24" xmlns="http://www.w3.org/2000/svg" xmlns:xlink="http://www.w3.org/1999/xlink" overflow="hidden"><path d="M8.98438 1C8.43822 1.00859 7.99999 1.45378 8 2L8 8.29688 5.6582 6.24805C5.2423 5.88459 4.6105 5.9271 4.24704 6.343 4.08802 6.52496 4.00027 6.75835 4 7L4 16.1719C4 16.9673 4.3166 17.7307 4.87891 18.293L7.70703 21.1211C8.26934 21.6834 9.03272 22 9.82812 22L14.1719 22C14.9667 22 15.7307 21.6822 16.293 21.1191L19.1211 18.293C19.6834 17.7307 20 16.9673 20 16.1719L20 12.8281C20 12.0327 19.6834 11.2693 19.1211 10.707L9.70703 1.29297C9.51571 1.10156 9.25498 0.995856 8.98438 1ZM10 4.41406 17.707 12.1211C17.8947 12.3088 18 12.5635 18 12.8281L18 16.1719C18 16.4365 17.8947 16.6893 17.707 16.877L14.8789 19.7051C14.8789 19.7057 14.8789 19.7064 14.8789 19.707 14.6913 19.8951 14.4365 20 14.1719 20L9.82812 20C9.56353 20 9.30879 19.8947 9.12109 19.707L6.29297 16.8789C6.10527 16.6912 6 16.4365 6 16.1719L6 9.20312 8.3418 11.252C8.7577 11.6154 9.3895 11.5729 9.75296 11.157 9.91198 10.975 9.99973 10.7417 10 10.5L10 4.41406ZM10.5 12.207C10.244 12.207 9.98797 12.3045 9.79297 12.5L8.79297 13.5C8.60397 13.688 8.5 13.94 8.5 14.207L8.5 15.293C8.5 15.56 8.60397 15.812 8.79297 16L11.293 18.5C11.488 18.695 11.744 18.793 12 18.793 12.256 18.793 12.512 18.695 12.707 18.5L15.207 16C15.396 15.812 15.5 15.56 15.5 15.293L15.5 14.207C15.5 13.94 15.396 13.688 15.207 13.5L14.207 12.5C13.817 12.109 13.183 12.109 12.793 12.5L12 13.293 11.207 12.5C11.012 12.3045 10.756 12.207 10.5 12.207Z" fill="#FAFAFA"/></svg>